<svg width="64" height="64" viewBox="0 0 64 64" fill="none" xmlns="http://www.w3.org/2000/svg">
<path d="M16 20H32V24H16V20ZM16 12H40V16H16V12ZM16 4H40V8H16V4Z" fill="#333333"/>
<path d="M9.422 56L20.684 36.008L35.552 48.988C36.0014 49.3879 36.5353 49.6813 37.1138 49.8464C37.6924 50.0114 38.3007 50.0438 38.8935 49.9411C39.4863 49.8385 40.0483 49.6034 40.5377 49.2535C41.0271 48.9036 41.4312 48.4478 41.72 47.92L55.66 27.114L52.338 24.886L38.338 45.782L38.198 45.988L23.328 33.008C22.8787 32.6103 22.3458 32.3187 21.7687 32.1546C21.1916 31.9905 20.585 31.9581 19.9936 32.0599C19.4023 32.1616 18.8414 32.3949 18.3524 32.7425C17.8633 33.09 17.4585 33.543 17.168 34.068L8 50.366V4H4V56C4.00106 57.0605 4.42283 58.0773 5.17274 58.8273C5.92266 59.5772 6.93946 59.9989 8 60H60V56H9.422Z" fill="#333333"/>
</svg>
