<svg width="48" height="48" viewBox="0 0 48 48" fill="none" xmlns="http://www.w3.org/2000/svg">
<g clip-path="url(#clip0_1_226)">
<path d="M26.6812 17.0531C25.7175 16.2708 24.299 16.4086 23.5172 17.3724C22.725 18.3375 22.8656 19.7531 23.8312 20.5406C24.8915 21.4078 25.5009 22.6678 25.5009 23.9972C25.5009 25.3275 24.8915 26.5865 23.8312 27.4537C22.8675 28.2418 22.7269 29.6597 23.5148 30.6206C23.9572 31.1655 24.6042 31.4467 25.2548 31.4467C25.7558 31.4467 26.2626 31.2798 26.6789 30.9399C28.7911 29.2112 30.0014 26.6837 30.0014 23.9977C30.0014 21.3118 28.7906 18.7875 26.6812 17.0531ZM32.3531 10.0406C31.395 9.25835 29.9775 9.39307 29.1862 10.354C28.3982 11.3149 28.5388 12.7324 29.4997 13.5209C32.676 16.1253 34.4976 19.9128 34.4976 23.9178C34.4976 27.9228 32.675 31.7074 29.4997 34.3146C28.5388 35.1027 28.3982 36.5206 29.1862 37.4815C29.3971 37.7391 29.6626 37.9466 29.9636 38.089C30.2645 38.2314 30.5933 38.3051 30.9262 38.3047C31.4301 38.3047 31.9341 38.1378 32.3531 37.7949C36.5812 34.4156 39 29.3531 39 23.9156C39 18.4781 36.5812 13.5843 32.3531 10.0406ZM38.1 3.10779C37.1419 2.32554 35.7244 2.46325 34.9331 3.42129C34.1451 4.38222 34.2857 5.79972 35.2466 6.58816C40.4906 10.8843 43.5 17.2312 43.5 23.9156C43.5 30.6 40.4916 37.0312 35.2444 41.325C34.2834 42.113 34.1428 43.5309 34.9309 44.4918C35.1417 44.7495 35.4072 44.957 35.7082 45.0993C36.0091 45.2417 36.3379 45.3154 36.6709 45.3151C37.1748 45.3151 37.6787 45.1481 38.0977 44.8053C44.3906 39.7312 48 32.1187 48 23.9156C48 15.7125 44.3906 8.26404 38.1 3.10779ZM14.1844 16.3687C15.1031 16.4625 16.1344 15.8906 16.5 14.9625L19.664 7.05185C20.0625 6.03279 19.6031 4.7906 18.7687 4.29935L12.4434 0.345911C11.55 -0.21462 10.3969 -0.0839328 9.64686 0.663723C-3.21751 13.5281 -3.21658 34.4718 9.64686 47.3343C10.3952 48.0828 11.5425 48.2136 12.4359 47.6533L18.7622 43.698C19.6786 43.1257 20.0653 41.9664 19.662 40.9511L16.5 33.0468C16.1301 32.1128 15.1744 31.5365 14.1815 31.6434L9.1903 32.1416C7.39592 26.8781 7.39592 21.1312 9.19311 15.8718L14.1844 16.3687Z" fill="white"/>
</g>
<defs>
<clipPath id="clip0_1_226">
<rect width="48" height="48" fill="white"/>
</clipPath>
</defs>
</svg>
