<svg width="78" height="80" viewBox="0 0 78 80" fill="none" xmlns="http://www.w3.org/2000/svg">
<rect x="0.5" y="0.5" width="77" height="79" fill="white"/>
<rect x="0.5" y="0.5" width="77" height="79" stroke="#8A8D8D"/>
<g clip-path="url(#clip0_1_157)">
<path d="M19 26C19 25.4696 19.2107 24.9609 19.5858 24.5858C19.9609 24.2107 20.4696 24 21 24H45C45.5304 24 46.0391 24.2107 46.4142 24.5858C46.7893 24.9609 47 25.4696 47 26C47 26.5304 46.7893 27.0391 46.4142 27.4142C46.0391 27.7893 45.5304 28 45 28H21C20.4696 28 19.9609 27.7893 19.5858 27.4142C19.2107 27.0391 19 26.5304 19 26ZM19 34C19 33.4696 19.2107 32.9609 19.5858 32.5858C19.9609 32.2107 20.4696 32 21 32H45C45.5304 32 46.0391 32.2107 46.4142 32.5858C46.7893 32.9609 47 33.4696 47 34C47 34.5304 46.7893 35.0391 46.4142 35.4142C46.0391 35.7893 45.5304 36 45 36H21C20.4696 36 19.9609 35.7893 19.5858 35.4142C19.2107 35.0391 19 34.5304 19 34ZM19 42C19 41.4696 19.2107 40.9609 19.5858 40.5858C19.9609 40.2107 20.4696 40 21 40H45C45.5304 40 46.0391 40.2107 46.4142 40.5858C46.7893 40.9609 47 41.4696 47 42C47 42.5304 46.7893 43.0391 46.4142 43.4142C46.0391 43.7893 45.5304 44 45 44H21C20.4696 44 19.9609 43.7893 19.5858 43.4142C19.2107 43.0391 19 42.5304 19 42ZM19 50C19 49.4696 19.2107 48.9609 19.5858 48.5858C19.9609 48.2107 20.4696 48 21 48H45C45.5304 48 46.0391 48.2107 46.4142 48.5858C46.7893 48.9609 47 49.4696 47 50C47 50.5304 46.7893 51.0391 46.4142 51.4142C46.0391 51.7893 45.5304 52 45 52H21C20.4696 52 19.9609 51.7893 19.5858 51.4142C19.2107 51.0391 19 50.5304 19 50ZM19 58C19 57.4696 19.2107 56.9609 19.5858 56.5858C19.9609 56.2107 20.4696 56 21 56H45C45.5304 56 46.0391 56.2107 46.4142 56.5858C46.7893 56.9609 47 57.4696 47 58C47 58.5304 46.7893 59.0391 46.4142 59.4142C46.0391 59.7893 45.5304 60 45 60H21C20.4696 60 19.9609 59.7893 19.5858 59.4142C19.2107 59.0391 19 58.5304 19 58ZM53 24C52.4696 24 51.9609 24.2107 51.5858 24.5858C51.2107 24.9609 51 25.4696 51 26C51 26.5304 51.2107 27.0391 51.5858 27.4142C51.9609 27.7893 52.4696 28 53 28H57C57.5304 28 58.0391 27.7893 58.4142 27.4142C58.7893 27.0391 59 26.5304 59 26C59 25.4696 58.7893 24.9609 58.4142 24.5858C58.0391 24.2107 57.5304 24 57 24H53ZM53 32C52.4696 32 51.9609 32.2107 51.5858 32.5858C51.2107 32.9609 51 33.4696 51 34C51 34.5304 51.2107 35.0391 51.5858 35.4142C51.9609 35.7893 52.4696 36 53 36H57C57.5304 36 58.0391 35.7893 58.4142 35.4142C58.7893 35.0391 59 34.5304 59 34C59 33.4696 58.7893 32.9609 58.4142 32.5858C58.0391 32.2107 57.5304 32 57 32H53ZM53 40C52.4696 40 51.9609 40.2107 51.5858 40.5858C51.2107 40.9609 51 41.4696 51 42C51 42.5304 51.2107 43.0391 51.5858 43.4142C51.9609 43.7893 52.4696 44 53 44H57C57.5304 44 58.0391 43.7893 58.4142 43.4142C58.7893 43.0391 59 42.5304 59 42C59 41.4696 58.7893 40.9609 58.4142 40.5858C58.0391 40.2107 57.5304 40 57 40H53ZM53 48C52.4696 48 51.9609 48.2107 51.5858 48.5858C51.2107 48.9609 51 49.4696 51 50C51 50.5304 51.2107 51.0391 51.5858 51.4142C51.9609 51.7893 52.4696 52 53 52H57C57.5304 52 58.0391 51.7893 58.4142 51.4142C58.7893 51.0391 59 50.5304 59 50C59 49.4696 58.7893 48.9609 58.4142 48.5858C58.0391 48.2107 57.5304 48 57 48H53ZM53 56C52.4696 56 51.9609 56.2107 51.5858 56.5858C51.2107 56.9609 51 57.4696 51 58C51 58.5304 51.2107 59.0391 51.5858 59.4142C51.9609 59.7893 52.4696 60 53 60H57C57.5304 60 58.0391 59.7893 58.4142 59.4142C58.7893 59.0391 59 58.5304 59 58C59 57.4696 58.7893 56.9609 58.4142 56.5858C58.0391 56.2107 57.5304 56 57 56H53Z" fill="#333333"/>
<path d="M16.416 10.584C16.1919 10.3597 15.9177 10.1919 15.616 10.0945C15.3143 9.99701 14.9938 9.97268 14.6808 10.0235C14.3679 10.0743 14.0715 10.1987 13.8161 10.3866C13.5607 10.5745 13.3537 10.8203 13.212 11.104L11.212 15.104C11.0726 15.3821 11 15.6889 11 16V68H9C8.46957 68 7.96086 68.2107 7.58579 68.5858C7.21071 68.9608 7 69.4695 7 70C7 70.5304 7.21071 71.0391 7.58579 71.4142C7.96086 71.7893 8.46957 72 9 72H69C69.5304 72 70.0391 71.7893 70.4142 71.4142C70.7893 71.0391 71 70.5304 71 70C71 69.4695 70.7893 68.9608 70.4142 68.5858C70.0391 68.2107 69.5304 68 69 68H67V16C67 15.6889 66.9274 15.3821 66.788 15.104L64.788 11.104C64.6462 10.8211 64.4392 10.5758 64.1842 10.3885C63.9291 10.2011 63.6333 10.077 63.3209 10.0262C63.0085 9.97543 62.6886 9.99953 62.3873 10.0965C62.0861 10.1935 61.8121 10.3605 61.588 10.584L59 13.172L56.416 10.584C56.2302 10.3977 56.0095 10.2499 55.7665 10.1491C55.5236 10.0483 55.2631 9.9964 55 9.9964C54.7369 9.9964 54.4764 10.0483 54.2335 10.1491C53.9905 10.2499 53.7698 10.3977 53.584 10.584L51 13.172L48.416 10.584C48.2302 10.3977 48.0095 10.2499 47.7665 10.1491C47.5236 10.0483 47.2631 9.9964 47 9.9964C46.7369 9.9964 46.4764 10.0483 46.2335 10.1491C45.9905 10.2499 45.7698 10.3977 45.584 10.584L43 13.172L40.416 10.584C40.2302 10.3977 40.0095 10.2499 39.7665 10.1491C39.5236 10.0483 39.2631 9.9964 39 9.9964C38.7369 9.9964 38.4764 10.0483 38.2335 10.1491C37.9905 10.2499 37.7698 10.3977 37.584 10.584L35 13.172L32.416 10.584C32.2302 10.3977 32.0095 10.2499 31.7665 10.1491C31.5236 10.0483 31.2631 9.9964 31 9.9964C30.7369 9.9964 30.4764 10.0483 30.2335 10.1491C29.9905 10.2499 29.7698 10.3977 29.584 10.584L27 13.172L24.416 10.584C24.2302 10.3977 24.0095 10.2499 23.7665 10.1491C23.5236 10.0483 23.2631 9.9964 23 9.9964C22.7369 9.9964 22.4764 10.0483 22.2335 10.1491C21.9905 10.2499 21.7698 10.3977 21.584 10.584L19 13.172L16.416 10.584ZM15.548 15.376L17.588 17.416C17.9631 17.7909 18.4717 18.0015 19.002 18.0015C19.5323 18.0015 20.0409 17.7909 20.416 17.416L23 14.828L25.584 17.416C25.7698 17.6022 25.9905 17.75 26.2335 17.8508C26.4764 17.9517 26.7369 18.0035 27 18.0035C27.2631 18.0035 27.5236 17.9517 27.7665 17.8508C28.0095 17.75 28.2302 17.6022 28.416 17.416L31 14.828L33.584 17.416C33.7698 17.6022 33.9905 17.75 34.2335 17.8508C34.4764 17.9517 34.7369 18.0035 35 18.0035C35.2631 18.0035 35.5236 17.9517 35.7665 17.8508C36.0095 17.75 36.2302 17.6022 36.416 17.416L39 14.828L41.584 17.416C41.7698 17.6022 41.9905 17.75 42.2335 17.8508C42.4764 17.9517 42.7369 18.0035 43 18.0035C43.2631 18.0035 43.5236 17.9517 43.7665 17.8508C44.0095 17.75 44.2302 17.6022 44.416 17.416L47 14.828L49.584 17.416C49.7698 17.6022 49.9905 17.75 50.2335 17.8508C50.4764 17.9517 50.7369 18.0035 51 18.0035C51.2631 18.0035 51.5236 17.9517 51.7665 17.8508C52.0095 17.75 52.2302 17.6022 52.416 17.416L55 14.828L57.584 17.416C57.7698 17.6022 57.9905 17.75 58.2335 17.8508C58.4764 17.9517 58.7369 18.0035 59 18.0035C59.2631 18.0035 59.5236 17.9517 59.7665 17.8508C60.0095 17.75 60.2302 17.6022 60.416 17.416L62.452 15.376L63 16.472V68H15V16.472L15.548 15.376Z" fill="#333333"/>
</g>
<defs>
<clipPath id="clip0_1_157">
<rect width="64" height="64" fill="white" transform="translate(7 8)"/>
</clipPath>
</defs>
</svg>
