<svg width="21" height="20" viewBox="0 0 21 20" fill="none" xmlns="http://www.w3.org/2000/svg">
<g clip-path="url(#clip0_1_249)">
<path d="M5.06763 1.66012C4.99384 1.5652 4.90069 1.48706 4.79438 1.43091C4.68807 1.37475 4.57103 1.34185 4.45103 1.3344C4.33103 1.32695 4.21082 1.34512 4.09838 1.38771C3.98594 1.43029 3.88384 1.4963 3.79888 1.58137L2.50638 2.87512C1.90263 3.48012 1.68013 4.33638 1.94388 5.08763C3.03856 8.19711 4.81925 11.0202 7.15388 13.3476C9.48129 15.6822 12.3044 17.4629 15.4139 18.5576C16.1651 18.8214 17.0214 18.5989 17.6264 17.9951L18.9189 16.7026C19.004 16.6177 19.07 16.5156 19.1126 16.4031C19.1551 16.2907 19.1733 16.1705 19.1659 16.0505C19.1584 15.9305 19.1255 15.8134 19.0694 15.7071C19.0132 15.6008 18.9351 15.5077 18.8401 15.4339L15.9564 13.1914C15.855 13.1127 15.737 13.0581 15.6114 13.0317C15.4858 13.0053 15.3559 13.0077 15.2314 13.0389L12.4939 13.7226C12.1285 13.814 11.7457 13.8091 11.3827 13.7086C11.0197 13.608 10.689 13.4152 10.4226 13.1489L7.35263 10.0776C7.08609 9.81142 6.89304 9.48073 6.79227 9.11775C6.69151 8.75477 6.68646 8.37188 6.77763 8.00638L7.46263 5.26888C7.49377 5.14437 7.49622 5.01442 7.4698 4.88883C7.44338 4.76324 7.38879 4.64529 7.31013 4.54387L5.06763 1.66012ZM2.85513 0.638875C3.07387 0.420061 3.33667 0.250288 3.62606 0.140826C3.91544 0.0313647 4.22481 -0.0152795 4.53361 0.0039909C4.84241 0.0232613 5.14357 0.108005 5.41711 0.252596C5.69064 0.397186 5.93029 0.598314 6.12013 0.842625L8.36263 3.72512C8.77388 4.25387 8.91888 4.94263 8.75638 5.59262L8.07263 8.33012C8.03728 8.47191 8.03919 8.62043 8.07818 8.76126C8.11716 8.90209 8.1919 9.03045 8.29513 9.13387L11.3664 12.2051C11.4699 12.3086 11.5985 12.3834 11.7396 12.4224C11.8806 12.4614 12.0294 12.4632 12.1714 12.4276L14.9076 11.7439C15.2284 11.6637 15.5632 11.6574 15.8867 11.7257C16.2103 11.7939 16.514 11.9347 16.7751 12.1376L19.6576 14.3801C20.6939 15.1864 20.7889 16.7176 19.8614 17.6439L18.5689 18.9364C17.6439 19.8614 16.2614 20.2676 14.9726 19.8139C11.6741 18.6533 8.67922 16.7649 6.21013 14.2889C3.73424 11.8201 1.84589 8.8257 0.685131 5.52762C0.232631 4.24012 0.638881 2.85637 1.56388 1.93137L2.85638 0.638875H2.85513ZM14.2501 0.625125C14.2501 0.459364 14.316 0.300393 14.4332 0.183183C14.5504 0.0659726 14.7094 0.000124579 14.8751 0.000124579H19.8751C20.0409 0.000124579 20.1999 0.0659726 20.3171 0.183183C20.4343 0.300393 20.5001 0.459364 20.5001 0.625125V5.62512C20.5001 5.79088 20.4343 5.94986 20.3171 6.06707C20.1999 6.18428 20.0409 6.25012 19.8751 6.25012C19.7094 6.25012 19.5504 6.18428 19.4332 6.06707C19.316 5.94986 19.2501 5.79088 19.2501 5.62512V2.13387L14.0676 7.31763C13.9503 7.43498 13.7911 7.50091 13.6251 7.50091C13.4592 7.50091 13.3 7.43498 13.1826 7.31763C13.0653 7.20027 12.9993 7.04109 12.9993 6.87512C12.9993 6.70916 13.0653 6.54998 13.1826 6.43262L18.3664 1.25012H14.8751C14.7094 1.25012 14.5504 1.18428 14.4332 1.06707C14.316 0.949856 14.2501 0.790885 14.2501 0.625125Z" fill="#333333"/>
</g>
<defs>
<clipPath id="clip0_1_249">
<rect width="20" height="20" fill="white" transform="translate(0.5)"/>
</clipPath>
</defs>
</svg>
