<svg width="78" height="80" viewBox="0 0 78 80" fill="none" xmlns="http://www.w3.org/2000/svg">
<rect x="0.5" y="0.5" width="77" height="79" fill="white"/>
<rect x="0.5" y="0.5" width="77" height="79" stroke="#8A8D8D"/>
<path d="M14 8V72H63.2308V24.2314L62.5391 23.4609L47.7698 8.69169L46.9994 8H14ZM18.9231 12.9231H43.5385V27.6923H58.3077V67.0769H18.9231V12.9231ZM48.4615 16.4628L54.7705 22.7692H48.4615V16.4628ZM51.1545 35.0769C49.7982 35.0769 48.6929 36.1846 48.6929 37.5385C48.6929 38.8923 49.7982 40 51.1545 40C52.5083 40 53.616 38.8923 53.616 37.5385C53.616 36.1846 52.5083 35.0769 51.1545 35.0769ZM33.6923 39.0006L31.9225 40.6917L22.0763 50.5378L25.616 54.0775L33.6923 45.9988L39.3071 51.616L41.0769 53.3071L42.8468 51.616L46 48.4603L51.6148 54.0775L55.1545 50.5378L47.7698 43.1532L46 41.4622L44.2302 43.1532L41.0769 46.3089L35.4622 40.6917L33.6923 39.0006Z" fill="#333333"/>
</svg>
