<svg width="78" height="80" viewBox="0 0 78 80" fill="none" xmlns="http://www.w3.org/2000/svg">
<rect x="0.5" y="0.5" width="77" height="79" fill="white"/>
<rect x="0.5" y="0.5" width="77" height="79" stroke="#8A8D8D"/>
<g clip-path="url(#clip0_1_166)">
<path d="M13.9733 8V10.3653H24.2133V8H13.9733ZM27.3653 8V10.3653H37.608V8H27.3653ZM40.584 8V10.3653H50.8267V8H40.584ZM53.744 8V10.3653H63.9893V8H53.744ZM13.5253 13.0533C12.8641 13.0533 12.2299 13.316 11.7623 13.7836C11.2947 14.2512 11.032 14.8854 11.032 15.5467C11.032 16.9253 12.1467 18.048 13.5253 18.048H64.4747C65.8533 18.048 66.968 16.928 66.968 15.5467C66.9684 15.219 66.9041 14.8945 66.779 14.5917C66.6538 14.2889 66.4702 14.0137 66.2387 13.7819C66.0071 13.5501 65.7321 13.3662 65.4294 13.2407C65.1268 13.1152 64.8023 13.0507 64.4747 13.0507L13.5253 13.0533ZM13.9733 20.6453V72H24.2133V20.6453H13.9733ZM27.3653 20.6453V62.7813H37.6107V20.648L27.3653 20.6453ZM40.584 20.6453V48.776H50.8507V20.6453H40.584ZM53.744 20.6453V37.9627H63.9893V20.6453H53.744Z" fill="#333333"/>
</g>
<defs>
<clipPath id="clip0_1_166">
<rect width="64" height="64" fill="white" transform="translate(7 8)"/>
</clipPath>
</defs>
</svg>
