<svg width="78" height="80" viewBox="0 0 78 80" fill="none" xmlns="http://www.w3.org/2000/svg">
<rect x="0.5" y="0.5" width="77" height="79" fill="white"/>
<rect x="0.5" y="0.5" width="77" height="79" stroke="#8A8D8D"/>
<path d="M23 28H39V32H23V28ZM23 20H47V24H23V20ZM23 12H47V16H23V12Z" fill="#333333"/>
<path d="M16.422 64L27.684 44.008L42.552 56.988C43.0014 57.3879 43.5353 57.6813 44.1138 57.8464C44.6924 58.0114 45.3007 58.0438 45.8935 57.9411C46.4863 57.8385 47.0483 57.6034 47.5377 57.2535C48.0271 56.9036 48.4312 56.4478 48.72 55.92L62.66 35.114L59.338 32.886L45.338 53.782L45.198 53.988L30.328 41.008C29.8787 40.6103 29.3458 40.3187 28.7687 40.1546C28.1916 39.9905 27.585 39.9581 26.9936 40.0599C26.4023 40.1616 25.8414 40.3949 25.3524 40.7425C24.8633 41.09 24.4585 41.543 24.168 42.068L15 58.366V12H11V64C11.0011 65.0605 11.4228 66.0773 12.1727 66.8273C12.9227 67.5772 13.9395 67.9989 15 68H67V64H16.422Z" fill="#333333"/>
</svg>
